<mxfile host="app.diagrams.net" modified="2022-07-13T12:51:35.470Z" agent="5.0 (Windows NT 10.0; Win64; x64) AppleWebKit/537.36 (KHTML, like Gecko) Chrome/103.0.5060.114 Safari/537.36 Edg/103.0.1264.49" etag="a-B3eomTyGkUZuTqw3gF" version="20.1.1" type="github">
  <diagram id="znatvJmD_-WvZCfmS0NZ" name="Page-1">
    <mxGraphModel dx="1278" dy="539" grid="1" gridSize="10" guides="1" tooltips="1" connect="1" arrows="1" fold="1" page="1" pageScale="1" pageWidth="827" pageHeight="1169" math="0" shadow="0">
      <root>
        <mxCell id="0" />
        <mxCell id="1" parent="0" />
        <mxCell id="DRLEqKaoWhlHP_XjGzBj-2" value="句子" style="rounded=0;whiteSpace=wrap;html=1;" parent="1" vertex="1">
          <mxGeometry x="100" y="380" width="140" height="30" as="geometry" />
        </mxCell>
        <mxCell id="DRLEqKaoWhlHP_XjGzBj-3" value="句子" style="rounded=0;whiteSpace=wrap;html=1;" parent="1" vertex="1">
          <mxGeometry x="100" y="410" width="140" height="30" as="geometry" />
        </mxCell>
        <mxCell id="DRLEqKaoWhlHP_XjGzBj-4" value="句子" style="rounded=0;whiteSpace=wrap;html=1;" parent="1" vertex="1">
          <mxGeometry x="100" y="440" width="140" height="30" as="geometry" />
        </mxCell>
        <mxCell id="DRLEqKaoWhlHP_XjGzBj-8" value="" style="shape=flexArrow;endArrow=classic;html=1;rounded=0;" parent="1" edge="1">
          <mxGeometry width="50" height="50" relative="1" as="geometry">
            <mxPoint x="260" y="439" as="sourcePoint" />
            <mxPoint x="340" y="439" as="targetPoint" />
          </mxGeometry>
        </mxCell>
        <mxCell id="DRLEqKaoWhlHP_XjGzBj-9" value="" style="shape=cube;whiteSpace=wrap;html=1;boundedLbl=1;backgroundOutline=1;darkOpacity=0.05;darkOpacity2=0.1;" parent="1" vertex="1">
          <mxGeometry x="470" y="240" width="160" height="180" as="geometry" />
        </mxCell>
        <mxCell id="DRLEqKaoWhlHP_XjGzBj-10" value="XWant" style="rounded=0;whiteSpace=wrap;html=1;" parent="1" vertex="1">
          <mxGeometry x="490" y="260" width="140" height="40" as="geometry" />
        </mxCell>
        <mxCell id="DRLEqKaoWhlHP_XjGzBj-11" value="Xintent" style="rounded=0;whiteSpace=wrap;html=1;" parent="1" vertex="1">
          <mxGeometry x="490" y="300" width="140" height="40" as="geometry" />
        </mxCell>
        <mxCell id="DRLEqKaoWhlHP_XjGzBj-12" value="Xneed" style="rounded=0;whiteSpace=wrap;html=1;" parent="1" vertex="1">
          <mxGeometry x="490" y="340" width="140" height="40" as="geometry" />
        </mxCell>
        <mxCell id="DRLEqKaoWhlHP_XjGzBj-13" value="XEffect" style="rounded=0;whiteSpace=wrap;html=1;" parent="1" vertex="1">
          <mxGeometry x="490" y="380" width="140" height="40" as="geometry" />
        </mxCell>
        <mxCell id="DRLEqKaoWhlHP_XjGzBj-14" value="序列长度" style="text;html=1;strokeColor=none;fillColor=none;align=center;verticalAlign=middle;whiteSpace=wrap;rounded=0;" parent="1" vertex="1">
          <mxGeometry x="720" y="210" width="60" height="30" as="geometry" />
        </mxCell>
        <mxCell id="DRLEqKaoWhlHP_XjGzBj-15" value="" style="endArrow=classic;html=1;rounded=0;" parent="1" edge="1">
          <mxGeometry width="50" height="50" relative="1" as="geometry">
            <mxPoint x="680" y="240" as="sourcePoint" />
            <mxPoint x="800" y="240" as="targetPoint" />
          </mxGeometry>
        </mxCell>
        <mxCell id="DRLEqKaoWhlHP_XjGzBj-16" value="" style="endArrow=classic;html=1;rounded=0;" parent="1" edge="1">
          <mxGeometry width="50" height="50" relative="1" as="geometry">
            <mxPoint x="680" y="240" as="sourcePoint" />
            <mxPoint x="680" y="350" as="targetPoint" />
          </mxGeometry>
        </mxCell>
        <mxCell id="DRLEqKaoWhlHP_XjGzBj-17" value="" style="endArrow=classic;html=1;rounded=0;" parent="1" edge="1">
          <mxGeometry width="50" height="50" relative="1" as="geometry">
            <mxPoint x="680" y="240" as="sourcePoint" />
            <mxPoint x="600" y="190" as="targetPoint" />
          </mxGeometry>
        </mxCell>
        <mxCell id="DRLEqKaoWhlHP_XjGzBj-32" value="D" style="edgeLabel;html=1;align=center;verticalAlign=middle;resizable=0;points=[];" parent="DRLEqKaoWhlHP_XjGzBj-17" vertex="1" connectable="0">
          <mxGeometry x="-0.5874" y="1" relative="1" as="geometry">
            <mxPoint x="-23" y="-11" as="offset" />
          </mxGeometry>
        </mxCell>
        <mxCell id="DRLEqKaoWhlHP_XjGzBj-19" value="X" style="text;html=1;strokeColor=none;fillColor=none;align=center;verticalAlign=middle;whiteSpace=wrap;rounded=0;" parent="1" vertex="1">
          <mxGeometry x="670" y="280" width="40" height="60" as="geometry" />
        </mxCell>
        <mxCell id="DRLEqKaoWhlHP_XjGzBj-21" value="" style="shape=cube;whiteSpace=wrap;html=1;boundedLbl=1;backgroundOutline=1;darkOpacity=0.05;darkOpacity2=0.1;" parent="1" vertex="1">
          <mxGeometry x="470" y="450" width="160" height="60" as="geometry" />
        </mxCell>
        <mxCell id="DRLEqKaoWhlHP_XjGzBj-22" value="xReact" style="rounded=0;whiteSpace=wrap;html=1;" parent="1" vertex="1">
          <mxGeometry x="490" y="470" width="140" height="40" as="geometry" />
        </mxCell>
        <mxCell id="DRLEqKaoWhlHP_XjGzBj-33" value="序列长度" style="text;html=1;strokeColor=none;fillColor=none;align=center;verticalAlign=middle;whiteSpace=wrap;rounded=0;" parent="1" vertex="1">
          <mxGeometry x="720" y="450" width="60" height="30" as="geometry" />
        </mxCell>
        <mxCell id="DRLEqKaoWhlHP_XjGzBj-34" value="" style="endArrow=classic;html=1;rounded=0;" parent="1" edge="1">
          <mxGeometry width="50" height="50" relative="1" as="geometry">
            <mxPoint x="680" y="480" as="sourcePoint" />
            <mxPoint x="800" y="480" as="targetPoint" />
          </mxGeometry>
        </mxCell>
        <mxCell id="DRLEqKaoWhlHP_XjGzBj-35" value="" style="endArrow=classic;html=1;rounded=0;" parent="1" edge="1">
          <mxGeometry width="50" height="50" relative="1" as="geometry">
            <mxPoint x="680" y="480" as="sourcePoint" />
            <mxPoint x="680" y="590" as="targetPoint" />
          </mxGeometry>
        </mxCell>
        <mxCell id="DRLEqKaoWhlHP_XjGzBj-36" value="" style="endArrow=classic;html=1;rounded=0;" parent="1" edge="1">
          <mxGeometry width="50" height="50" relative="1" as="geometry">
            <mxPoint x="680" y="480" as="sourcePoint" />
            <mxPoint x="600" y="430" as="targetPoint" />
          </mxGeometry>
        </mxCell>
        <mxCell id="DRLEqKaoWhlHP_XjGzBj-37" value="D" style="edgeLabel;html=1;align=center;verticalAlign=middle;resizable=0;points=[];" parent="DRLEqKaoWhlHP_XjGzBj-36" vertex="1" connectable="0">
          <mxGeometry x="-0.5874" y="1" relative="1" as="geometry">
            <mxPoint x="-23" y="-11" as="offset" />
          </mxGeometry>
        </mxCell>
        <mxCell id="DRLEqKaoWhlHP_XjGzBj-38" value="X" style="text;html=1;strokeColor=none;fillColor=none;align=center;verticalAlign=middle;whiteSpace=wrap;rounded=0;" parent="1" vertex="1">
          <mxGeometry x="670" y="520" width="40" height="60" as="geometry" />
        </mxCell>
        <mxCell id="pADr6IXApN7lHmidaAt1-12" value="" style="shape=cube;whiteSpace=wrap;html=1;boundedLbl=1;backgroundOutline=1;darkOpacity=0.05;darkOpacity2=0.1;" vertex="1" parent="1">
          <mxGeometry x="910" y="280" width="140" height="155" as="geometry" />
        </mxCell>
        <mxCell id="pADr6IXApN7lHmidaAt1-13" value="XWant" style="rounded=0;whiteSpace=wrap;html=1;" vertex="1" parent="1">
          <mxGeometry x="910" y="280" width="140" height="35" as="geometry" />
        </mxCell>
        <mxCell id="pADr6IXApN7lHmidaAt1-14" value="Xintent" style="rounded=0;whiteSpace=wrap;html=1;" vertex="1" parent="1">
          <mxGeometry x="910" y="315" width="140" height="40" as="geometry" />
        </mxCell>
        <mxCell id="pADr6IXApN7lHmidaAt1-15" value="Xneed" style="rounded=0;whiteSpace=wrap;html=1;" vertex="1" parent="1">
          <mxGeometry x="910" y="355" width="140" height="40" as="geometry" />
        </mxCell>
        <mxCell id="pADr6IXApN7lHmidaAt1-16" value="XEffect" style="rounded=0;whiteSpace=wrap;html=1;" vertex="1" parent="1">
          <mxGeometry x="910" y="395" width="140" height="40" as="geometry" />
        </mxCell>
        <mxCell id="pADr6IXApN7lHmidaAt1-17" value="序列长度l" style="text;html=1;strokeColor=none;fillColor=none;align=center;verticalAlign=middle;whiteSpace=wrap;rounded=0;" vertex="1" parent="1">
          <mxGeometry x="1140" y="225" width="60" height="30" as="geometry" />
        </mxCell>
        <mxCell id="pADr6IXApN7lHmidaAt1-18" value="" style="endArrow=classic;html=1;rounded=0;" edge="1" parent="1">
          <mxGeometry width="50" height="50" relative="1" as="geometry">
            <mxPoint x="1100" y="255" as="sourcePoint" />
            <mxPoint x="1220" y="255" as="targetPoint" />
          </mxGeometry>
        </mxCell>
        <mxCell id="pADr6IXApN7lHmidaAt1-20" value="" style="endArrow=classic;html=1;rounded=0;" edge="1" parent="1">
          <mxGeometry width="50" height="50" relative="1" as="geometry">
            <mxPoint x="1100" y="255" as="sourcePoint" />
            <mxPoint x="1100" y="380" as="targetPoint" />
          </mxGeometry>
        </mxCell>
        <mxCell id="pADr6IXApN7lHmidaAt1-21" value="Dimension" style="edgeLabel;html=1;align=center;verticalAlign=middle;resizable=0;points=[];" vertex="1" connectable="0" parent="pADr6IXApN7lHmidaAt1-20">
          <mxGeometry x="-0.5874" y="1" relative="1" as="geometry">
            <mxPoint x="9" y="39" as="offset" />
          </mxGeometry>
        </mxCell>
        <mxCell id="pADr6IXApN7lHmidaAt1-28" value="序列长度l" style="text;html=1;strokeColor=none;fillColor=none;align=center;verticalAlign=middle;whiteSpace=wrap;rounded=0;" vertex="1" parent="1">
          <mxGeometry x="1140" y="440" width="60" height="30" as="geometry" />
        </mxCell>
        <mxCell id="pADr6IXApN7lHmidaAt1-29" value="" style="endArrow=classic;html=1;rounded=0;" edge="1" parent="1">
          <mxGeometry width="50" height="50" relative="1" as="geometry">
            <mxPoint x="1100" y="470" as="sourcePoint" />
            <mxPoint x="1220" y="470" as="targetPoint" />
          </mxGeometry>
        </mxCell>
        <mxCell id="pADr6IXApN7lHmidaAt1-30" value="" style="endArrow=classic;html=1;rounded=0;" edge="1" parent="1">
          <mxGeometry width="50" height="50" relative="1" as="geometry">
            <mxPoint x="1100" y="470" as="sourcePoint" />
            <mxPoint x="1100" y="595" as="targetPoint" />
          </mxGeometry>
        </mxCell>
        <mxCell id="pADr6IXApN7lHmidaAt1-31" value="Dimension" style="edgeLabel;html=1;align=center;verticalAlign=middle;resizable=0;points=[];" vertex="1" connectable="0" parent="pADr6IXApN7lHmidaAt1-30">
          <mxGeometry x="-0.5874" y="1" relative="1" as="geometry">
            <mxPoint x="9" y="39" as="offset" />
          </mxGeometry>
        </mxCell>
        <mxCell id="pADr6IXApN7lHmidaAt1-32" value="XReact" style="rounded=0;whiteSpace=wrap;html=1;" vertex="1" parent="1">
          <mxGeometry x="910" y="485" width="140" height="35" as="geometry" />
        </mxCell>
      </root>
    </mxGraphModel>
  </diagram>
</mxfile>
